<svg width="13" height="17" viewBox="0 0 13 17" fill="none" xmlns="http://www.w3.org/2000/svg">
<path d="M6.59852 8.06084C5.56736 8.06084 4.67445 7.68108 3.94488 6.93182C3.21532 6.18268 2.84548 5.26606 2.84548 4.2071C2.84548 3.14852 3.21532 2.23178 3.945 1.48239C4.67469 0.733377 5.56748 0.353619 6.59852 0.353619C7.62981 0.353619 8.52248 0.733377 9.25204 1.48252C9.98161 2.23166 10.3516 3.1484 10.3516 4.2071C10.3516 5.26606 9.98161 6.1828 9.25192 6.93194C8.52224 7.68096 7.62945 8.06084 6.59852 8.06084Z" fill="#9EBBBD"/>
<path d="M0.0315027 12.6567C0.0525446 12.345 0.0951042 12.0049 0.157754 11.6458C0.220998 11.284 0.30243 10.9419 0.399912 10.6293C0.500604 10.3062 0.637553 9.98709 0.806838 9.68131C0.982543 9.36393 1.18892 9.08756 1.4205 8.86015C1.66266 8.62223 1.95914 8.43095 2.30199 8.29143C2.64365 8.15263 3.02229 8.08232 3.42731 8.08232C3.58637 8.08232 3.7402 8.14934 4.03728 8.34794C4.22012 8.47038 4.43398 8.61198 4.6727 8.7686C4.87681 8.90214 5.15333 9.02726 5.49487 9.14054C5.82809 9.25126 6.16642 9.30741 6.50036 9.30741C6.83429 9.30741 7.1725 9.25126 7.50608 9.14054C7.84727 9.02738 8.12378 8.90226 8.32766 8.76872C8.56411 8.61357 8.7781 8.47197 8.96367 8.34782C9.26039 8.14922 9.41434 8.0822 9.5734 8.0822C9.97855 8.0822 10.3571 8.15263 10.6986 8.29155C11.0412 8.43083 11.3378 8.62211 11.5802 8.86027C11.8117 9.08781 12.0182 9.36405 12.1936 9.68131C12.3628 9.98709 12.4998 10.3061 12.6006 10.6294C12.6979 10.942 12.7794 11.284 12.8426 11.6458C12.9053 12.0044 12.9478 12.3446 12.9689 12.6571C12.9895 12.9633 13 13.281 13 13.6019C13 14.4371 12.7414 15.1133 12.2316 15.6119C11.728 16.104 11.0617 16.3536 10.2514 16.3536H2.74862C1.93834 16.3536 1.27225 16.1041 0.768559 15.6119C0.258564 15.1136 0 14.4374 0 13.6018C0.000119209 13.2794 0.0106983 12.9614 0.0315027 12.6567Z" fill="#9EBBBD"/>
</svg>
